PathFileType	4	(X/Y/Z)	c:\Git\powerlifing_model_clean\simulations\HC835B\Session1\HC835B_OGR_0003\marker_experimental.trc
DataRate	CameraRate	NumFrames	NumMarkers	Units	OrigDataRate	OrigDataStartFrame	OrigNumFrames
240.000000	240.000000	5	38	mm	240.000000	53	215
Frame#	Time	RPSI			LPSI			RASI			LASI			RTH1			RTH2			RTH3			RTH4			RSK1			RSK2			RSK3			RSK4			RCAL1			RCAL2			RCAL3			RST			RPT			RTN			RFMB			RSMB			RVMB			RFMH			RSMH			RVMH			RPM			LTH1			LTH2			LTH3			LTH4			LSK1			LSK2			LSK3			LSK4			LCAL1			LCAL2			LCAL3			LFMH			LVMH			
		X1	Y1	Z1	X2	Y2	Z2	X3	Y3	Z3	X4	Y4	Z4	X5	Y5	Z5	X6	Y6	Z6	X7	Y7	Z7	X8	Y8	Z8	X9	Y9	Z9	X10	Y10	Z10	X11	Y11	Z11	X12	Y12	Z12	X13	Y13	Z13	X14	Y14	Z14	X15	Y15	Z15	X16	Y16	Z16	X17	Y17	Z17	X18	Y18	Z18	X19	Y19	Z19	X20	Y20	Z20	X21	Y21	Z21	X22	Y22	Z22	X23	Y23	Z23	X24	Y24	Z24	X25	Y25	Z25	X26	Y26	Z26	X27	Y27	Z27	X28	Y28	Z28	X29	Y29	Z29	X30	Y30	Z30	X31	Y31	Z31	X32	Y32	Z32	X33	Y33	Z33	X34	Y34	Z34	X35	Y35	Z35	X36	Y36	Z36	X37	Y37	Z37	X38	Y38	Z38	

54	0.2208333333333333	495.4209899902345	1129.934326171875	-414.1085815429689	387.3476867675782	1122.602294921875	-413.1138305664064	563.8314208984376	1042.789306640625	-610.1162719726564	314.2471618652344	1039.680297851563	-606.9119873046876	613.5675659179689	781.3012695312502	-496.9630737304689	606.7974243164064	762.9548950195314	-554.5901489257814	596.9639282226564	699.1275634765626	-509.8991088867189	579.1787719726564	682.5905151367189	-563.1439208984376	523.3577880859376	308.3598632812501	-311.2228088378907	518.7150268554689	269.6734619140626	-359.3274536132813	512.9700927734376	251.3459930419922	-301.6603088378907	497.5528259277345	216.3022155761719	-348.1102905273438	444.9874572753907	125.5058059692383	-179.2688751220703	410.0493774414064	91.22649383544923	-182.3331451416016	473.7263488769532	87.23108673095705	-174.1794128417969	399.5289306640626	95.7876663208008	-252.5390930175782	501.8061828613282	87.63702392578126	-233.036849975586	415.6464233398439	101.9366302490235	-310.4938049316407	421.5758361816407	80.38132476806642	-338.3010864257813	471.9266967773439	98.33630371093753	-346.9407043457032	513.2173461914064	54.67534637451173	-270.6110534667969	421.6085510253907	47.05362701416016	-389.234832763672	477.6699523925782	53.77127838134767	-399.2782287597657	535.0092773437501	37.36074829101563	-343.6327514648438	468.7266540527345	39.12411499023438	-456.7953491210939	230.8572235107422	789.7813720703127	-593.9152832031251	234.7250976562501	801.1748657226565	-653.8047485351564	227.6856994628907	721.0464477539064	-643.9426879882814	247.3074340820313	730.9283447265626	-701.2813720703126	276.6315917968751	532.1741943359376	-408.0175781250001	271.0117492675782	478.5486450195314	-406.5216064453126	282.0812988281251	498.9642028808595	-362.3418579101563	290.5592041015626	444.3273010253907	-363.9237976074219	351.4230651855469	510.8645019531251	-213.3565521240235	326.2213745117188	499.920623779297	-174.1161193847657	384.4665832519532	496.0573120117189	-182.0563354492188	384.8739624023439	286.5081481933594	-250.128402709961	281.9099426269532	313.2209167480469	-199.3354034423829	
55	0.225	496.3611450195314	1132.84765625	-429.1437988281251	387.9292297363282	1125.98486328125	-427.6952514648439	563.0457763671876	1045.0322265625	-624.9397583007814	314.4154052734376	1042.925659179688	-621.4511108398439	612.6610717773439	784.1451416015627	-506.3986206054689	605.7092285156251	764.5772705078126	-563.6245727539064	596.1096191406251	701.7005615234376	-517.6752319335939	578.0261230468751	684.1352539062501	-570.5051269531251	524.1702270507814	312.1121826171876	-314.3728637695313	519.4335937500001	273.2312011718751	-362.3298339843751	513.9346313476564	255.1601104736329	-304.5318908691407	498.559295654297	219.8614654541016	-350.8203125000001	446.7898559570314	130.4314270019532	-181.5673980712891	411.362518310547	96.44944000244143	-184.054183959961	475.0044860839845	91.82271575927736	-175.9043731689453	400.9604797363282	99.826774597168	-254.1548767089844	503.1712341308595	90.77111816406251	-234.6549835205079	417.018768310547	104.6077346801758	-312.2579345703126	422.5704040527345	82.08382415771486	-339.5091247558594	473.1163330078126	99.2651062011719	-348.7270812988282	513.9810180664064	56.69735336303712	-271.6997680664063	421.7458801269532	47.1948356628418	-389.3307189941407	477.9327697753907	53.30469512939455	-399.8099975585939	534.2678833007814	37.17103958129884	-343.8129882812501	468.7515563964845	39.1205177307129	-456.807830810547	230.9732818603516	793.8841552734377	-610.5842895507814	234.862289428711	806.202087402344	-670.2680053710939	228.1483459472657	725.6616821289064	-661.7808227539064	248.0587463378907	736.4517822265626	-718.8125000000001	276.6944580078126	528.4448852539064	-428.5669860839845	271.2651672363282	474.5495910644532	-428.7952575683595	281.5457763671876	494.3413085937501	-383.4525146484376	291.2869567871094	439.414764404297	-387.5953063964845	351.2463073730469	501.2338256835939	-233.9524230957032	325.8841552734376	488.9544677734376	-195.2319488525391	384.1921691894532	485.2776184082032	-203.0443725585938	384.3824462890626	278.2301330566407	-279.2509460449219	281.1434936523438	303.4518127441407	-228.0628051757813	
56	0.2291666666666667	497.2399902343751	1135.805297851563	-444.2619018554689	388.4143676757814	1129.404296875	-442.3656311035157	562.1637573242189	1047.708740234375	-639.7642211914064	314.5188903808594	1046.283203125	-636.3657836914064	611.8264770507814	787.2156982421877	-516.2095947265626	604.5590820312501	766.5581054687501	-573.0194091796876	595.1466064453126	704.5300903320314	-525.8442382812501	576.8673706054689	686.0612182617189	-578.2710571289064	525.0197753906251	316.1874084472657	-317.7641906738282	520.3287353515626	277.1697998046876	-365.5742187500001	514.9396362304689	259.2434997558594	-307.6891479492188	499.7512512207032	223.6900329589844	-353.8176879882813	448.5211486816407	135.6827392578125	-184.3590698242188	412.6648559570314	102.1157531738282	-186.2780303955078	476.1709289550782	96.8147888183594	-177.9309692382813	402.4126281738282	104.0108871459961	-256.2491455078126	504.524627685547	94.12498474121095	-236.6346740722657	418.4205627441407	107.3695373535157	-314.1270446777344	423.6217041015626	84.1017532348633	-341.2825622558594	474.4249572753907	100.5355682373047	-350.9967346191407	514.7691650390626	59.0230178833008	-273.0131225585938	421.9071655273439	47.35647583007813	-389.4891357421876	478.2030334472657	52.86511230468751	-400.4270324707032	534.4702758789064	37.35134887695313	-344.1121520996094	468.6817932128907	39.06871795654298	-456.865447998047	231.0209350585938	798.0585937500002	-627.1895141601564	234.9139251708985	811.1846313476565	-686.7614135742189	228.4988403320313	730.4607543945314	-679.4151000976564	248.4406738281251	741.9349365234376	-736.2385253906251	276.7090759277344	524.6382446289064	-448.9479370117189	270.6628112792969	470.9141845703126	-450.6777648925782	281.5373229980469	488.995086669922	-405.1112670898439	291.4082641601563	433.7947998046876	-411.556121826172	351.0916748046876	491.2366638183595	-254.8445739746094	325.4810180664063	477.5784301757814	-216.7394409179688	383.9493103027344	474.1879272460939	-224.4340057373047	384.1213684082032	270.0436096191407	-307.9895324707032	280.5213928222657	293.3767700195313	-256.4437561035157	
57	0.2333333333333333	498.0302734375001	1138.80810546875	-459.425994873047	388.7663879394532	1132.8828125	-457.1069641113282	561.2615966796876	1050.34912109375	-654.5563964843751	314.5607299804688	1049.588623046875	-651.0726928710939	611.1038818359376	790.4931640625002	-526.3627929687501	603.4197998046876	768.7996826171877	-582.8084716796876	594.7151489257814	707.8389892578126	-534.5170898437501	575.6591186523439	688.3213500976564	-586.4689331054689	525.9841308593751	320.5413818359376	-321.4338684082032	521.4356689453126	281.3073425292969	-369.0480041503907	516.0198974609376	263.6062927246094	-311.1043090820313	501.1352539062501	227.7612915039063	-357.1289367675782	450.1789855957032	141.2703704833985	-187.6240234375	413.924041748047	108.1123199462891	-188.7087554931641	477.3375549316407	102.2530822753907	-180.3487243652344	403.9275512695314	108.5146179199219	-258.7631225585938	505.0758361816407	97.93564605712893	-238.6273956298829	419.9246826171876	110.2388153076172	-316.5065612792969	424.6650695800782	86.22838592529298	-343.3341674804688	475.463592529297	101.342643737793	-353.2159729003907	515.1591186523439	61.35638809204103	-274.4580993652344	422.0527954101564	47.56468582153321	-389.6411437988282	478.5162048339845	52.59382247924806	-401.1964416503907	534.6585083007814	37.55916213989259	-344.4332580566407	468.7127990722657	39.06346511840821	-456.9024047851564	230.9865112304688	802.3142089843752	-644.0369873046876	234.930892944336	816.0009765625002	-703.2707519531251	228.8593902587891	735.2443847656251	-696.9321899414064	248.9022369384766	747.5396118164064	-753.5695190429689	276.6402282714844	520.5205078125001	-469.4788513183595	271.0094299316407	466.7688903808595	-472.9513549804689	281.5561523437501	483.5464477539064	-426.6796264648439	291.6294250488282	428.4048461914064	-435.1468811035157	350.9580078125001	480.9924621582032	-275.9130554199219	325.2195739746094	465.9753723144532	-238.4591827392579	383.5323791503907	462.580291748047	-246.0675048828126	383.8700866699219	261.4952697753907	-336.7936401367188	280.0289611816407	283.4211120605469	-285.3360595703126	
58	0.2375	498.7033691406251	1141.8466796875	-474.6754760742189	389.0180969238282	1136.457275390625	-471.8765563964845	560.7497558593751	1052.63720703125	-669.0275878906251	314.4990844726563	1052.848388671875	-665.9700927734376	610.5593261718751	793.889831542969	-536.8956298828126	602.3306884765626	771.3688964843752	-592.9165649414064	593.9105224609376	710.9160766601564	-543.6563110351564	574.4326171875001	690.8246459960939	-595.0462036132814	526.9193725585939	325.1596069335938	-325.2235412597657	522.6648559570314	285.7873535156251	-372.8327941894532	517.2596435546876	268.2593078613282	-314.8538513183594	502.6301269531251	232.1029357910157	-360.7456359863282	451.7618103027345	147.143051147461	-191.325912475586	414.9927062988282	114.4415359497071	-191.6411285400391	478.4522705078126	107.9716262817383	-183.1327819824219	405.5593261718751	113.122917175293	-261.5922851562501	506.1088256835939	101.7870407104492	-241.1631011962891	421.3357849121095	113.6164703369141	-319.8799743652344	425.6564025878907	88.26031494140626	-345.3425598144532	476.5016174316407	102.1771469116211	-355.4580688476563	515.5601806640626	63.93191146850587	-276.1115417480469	422.1223144531251	47.77569961547852	-389.8659973144532	478.7615051269532	52.230770111084	-401.996307373047	534.8815917968751	37.85853576660157	-344.8295593261719	468.6940917968751	39.06707763671876	-456.9842224121095	230.8544006347657	806.5034179687502	-660.7404785156251	235.1973114013672	820.7332153320315	-719.5462036132814	229.2115478515626	739.9826049804689	-714.1674804687501	249.3636474609376	752.7767944335939	-770.7048950195315	276.6920471191407	516.2495727539064	-490.0343017578126	271.3648071289063	462.8120727539064	-495.246795654297	281.5784301757813	477.8585510253907	-448.4134521484376	292.0987548828126	423.1844482421876	-458.6638793945314	350.7885437011719	470.3885192871095	-297.1800231933594	324.7821655273438	454.0202636718751	-260.5046386718751	383.0337829589844	450.6914062500001	-268.0307922363282	383.7224426269532	253.1049346923829	-366.4315185546876	279.6060180664063	273.4466857910157	-314.3912963867188	
